<mxfile host="Electron" agent="Mozilla/5.0 (Windows NT 10.0; Win64; x64) AppleWebKit/537.36 (KHTML, like Gecko) draw.io/24.7.5 Chrome/126.0.6478.183 Electron/31.3.0 Safari/537.36" version="24.7.5">
  <diagram name="Page-1" id="QAcQxfhFPSDBfZdCgXpX">
    <mxGraphModel dx="1290" dy="717" grid="1" gridSize="10" guides="1" tooltips="1" connect="1" arrows="1" fold="1" page="1" pageScale="1" pageWidth="827" pageHeight="1169" math="0" shadow="0">
      <root>
        <mxCell id="0" />
        <mxCell id="1" parent="0" />
        <mxCell id="Y1YdN2ggMdJQCuKRLtyw-1" value="" style="whiteSpace=wrap;html=1;aspect=fixed;" parent="1" vertex="1">
          <mxGeometry x="130" y="20" width="620" height="620" as="geometry" />
        </mxCell>
        <mxCell id="Y1YdN2ggMdJQCuKRLtyw-2" value="Administrateur" style="shape=umlActor;verticalLabelPosition=bottom;verticalAlign=top;html=1;outlineConnect=0;" parent="1" vertex="1">
          <mxGeometry x="70" y="90" width="30" height="60" as="geometry" />
        </mxCell>
        <mxCell id="Y1YdN2ggMdJQCuKRLtyw-3" value="Utilisateur" style="shape=umlActor;verticalLabelPosition=bottom;verticalAlign=top;html=1;outlineConnect=0;" parent="1" vertex="1">
          <mxGeometry x="70" y="525" width="30" height="60" as="geometry" />
        </mxCell>
        <mxCell id="Y1YdN2ggMdJQCuKRLtyw-7" value="Visualisation du projet de capteur de température dans la salle serveur" style="rounded=0;whiteSpace=wrap;html=1;" parent="1" vertex="1">
          <mxGeometry x="294" y="20" width="416" height="30" as="geometry" />
        </mxCell>
        <mxCell id="Y1YdN2ggMdJQCuKRLtyw-9" value="Configuration du capteur&amp;nbsp; Arduino" style="strokeWidth=2;html=1;shape=mxgraph.flowchart.start_1;whiteSpace=wrap;" parent="1" vertex="1">
          <mxGeometry x="330" y="160" width="180" height="40" as="geometry" />
        </mxCell>
        <mxCell id="Y1YdN2ggMdJQCuKRLtyw-10" value="Configuration du serveur mosquitto" style="strokeWidth=2;html=1;shape=mxgraph.flowchart.start_1;whiteSpace=wrap;" parent="1" vertex="1">
          <mxGeometry x="480" y="90" width="220" height="40" as="geometry" />
        </mxCell>
        <mxCell id="Y1YdN2ggMdJQCuKRLtyw-11" value="" style="endArrow=classic;html=1;rounded=0;exitX=0.5;exitY=0.5;exitDx=0;exitDy=0;exitPerimeter=0;" parent="1" source="Y1YdN2ggMdJQCuKRLtyw-2" target="Y1YdN2ggMdJQCuKRLtyw-9" edge="1">
          <mxGeometry width="50" height="50" relative="1" as="geometry">
            <mxPoint x="380" y="390" as="sourcePoint" />
            <mxPoint x="430" y="340" as="targetPoint" />
          </mxGeometry>
        </mxCell>
        <mxCell id="Y1YdN2ggMdJQCuKRLtyw-12" value="" style="endArrow=classic;html=1;rounded=0;entryX=0;entryY=0.5;entryDx=0;entryDy=0;entryPerimeter=0;" parent="1" source="Y1YdN2ggMdJQCuKRLtyw-2" target="Y1YdN2ggMdJQCuKRLtyw-10" edge="1">
          <mxGeometry width="50" height="50" relative="1" as="geometry">
            <mxPoint x="380" y="390" as="sourcePoint" />
            <mxPoint x="430" y="340" as="targetPoint" />
          </mxGeometry>
        </mxCell>
        <mxCell id="Y1YdN2ggMdJQCuKRLtyw-13" value="Se connecter au serveur mosquitto" style="strokeWidth=2;html=1;shape=mxgraph.flowchart.start_1;whiteSpace=wrap;" parent="1" vertex="1">
          <mxGeometry x="340" y="280" width="290" height="60" as="geometry" />
        </mxCell>
        <mxCell id="Y1YdN2ggMdJQCuKRLtyw-14" value="" style="endArrow=classic;html=1;rounded=0;" parent="1" source="Y1YdN2ggMdJQCuKRLtyw-10" target="Y1YdN2ggMdJQCuKRLtyw-13" edge="1">
          <mxGeometry width="50" height="50" relative="1" as="geometry">
            <mxPoint x="380" y="390" as="sourcePoint" />
            <mxPoint x="430" y="340" as="targetPoint" />
          </mxGeometry>
        </mxCell>
        <mxCell id="Y1YdN2ggMdJQCuKRLtyw-15" value="Connexion avec l&#39;interf&lt;span style=&quot;color: rgba(0, 0, 0, 0); font-family: monospace; font-size: 0px; text-align: start; text-wrap: nowrap;&quot;&gt;%3CmxGraphModel%3E%3Croot%3E%3CmxCell%20id%3D%220%22%2F%3E%3CmxCell%20id%3D%221%22%20parent%3D%220%22%2F%3E%3CmxCell%20id%3D%222%22%20value%3D%22Se%20connecter%20au%20serveur%20mosquitto%22%20style%3D%22strokeWidth%3D2%3Bhtml%3D1%3Bshape%3Dmxgraph.flowchart.start_1%3BwhiteSpace%3Dwrap%3B%22%20vertex%3D%221%22%20parent%3D%221%22%3E%3CmxGeometry%20x%3D%22440%22%20y%3D%22290%22%20width%3D%22220%22%20height%3D%2240%22%20as%3D%22geometry%22%2F%3E%3C%2FmxCell%3E%3C%2Froot%3E%3C%2FmxGraphModel%3E&lt;/span&gt;ace node-red&lt;span style=&quot;color: rgba(0, 0, 0, 0); font-family: monospace; font-size: 0px; text-align: start; text-wrap: nowrap;&quot;&gt;%3CmxGraphModel%3E%3Croot%3E%3CmxCell%20id%3D%220%22%2F%3E%3CmxCell%20id%3D%221%22%20parent%3D%220%22%2F%3E%3CmxCell%20id%3D%222%22%20value%3D%22Se%20connecter%20au%20serveur%20mosquitto%22%20style%3D%22strokeWidth%3D2%3Bhtml%3D1%3Bshape%3Dmxgraph.flowchart.start_1%3BwhiteSpace%3Dwrap%3B%22%20vertex%3D%221%22%20parent%3D%221%22%3E%3CmxGeometry%20x%3D%22440%22%20y%3D%22290%22%20width%3D%22220%22%20height%3D%2240%22%20as%3D%22geometry%22%2F%3E%3C%2FmxCell%3E%3C%2Froot%3E%3C%2FmxGraphModel%3E&lt;/span&gt;&lt;span style=&quot;color: rgba(0, 0, 0, 0); font-family: monospace; font-size: 0px; text-align: start; text-wrap: nowrap;&quot;&gt;%3CmxGraphModel%3E%3Croot%3E%3CmxCell%20id%3D%220%22%2F%3E%3CmxCell%20id%3D%221%22%20parent%3D%220%22%2F%3E%3CmxCell%20id%3D%222%22%20value%3D%22Se%20connecter%20au%20serveur%20mosquitto%22%20style%3D%22strokeWidth%3D2%3Bhtml%3D1%3Bshape%3Dmxgraph.flowchart.start_1%3BwhiteSpace%3Dwrap%3B%22%20vertex%3D%221%22%20parent%3D%221%22%3E%3CmxGeometry%20x%3D%22440%22%20y%3D%22290%22%20width%3D%22220%22%20height%3D%2240%22%20as%3D%22geometry%22%2F%3E%3C%2FmxCell%3E%3C%2Froot%3E%3C%2FmxGraphModel%3E&lt;/span&gt;" style="strokeWidth=2;html=1;shape=mxgraph.flowchart.start_1;whiteSpace=wrap;" parent="1" vertex="1">
          <mxGeometry x="320" y="400" width="220" height="40" as="geometry" />
        </mxCell>
        <mxCell id="Y1YdN2ggMdJQCuKRLtyw-16" value="Visualisation de la page web avec les températures afficher" style="strokeWidth=2;html=1;shape=mxgraph.flowchart.start_1;whiteSpace=wrap;" parent="1" vertex="1">
          <mxGeometry x="280" y="470" width="250" height="40" as="geometry" />
        </mxCell>
        <mxCell id="Y1YdN2ggMdJQCuKRLtyw-17" value="" style="endArrow=classic;html=1;rounded=0;exitX=0.5;exitY=1;exitDx=0;exitDy=0;exitPerimeter=0;" parent="1" source="Y1YdN2ggMdJQCuKRLtyw-13" target="Y1YdN2ggMdJQCuKRLtyw-15" edge="1">
          <mxGeometry width="50" height="50" relative="1" as="geometry">
            <mxPoint x="380" y="390" as="sourcePoint" />
            <mxPoint x="430" y="340" as="targetPoint" />
          </mxGeometry>
        </mxCell>
        <mxCell id="Y1YdN2ggMdJQCuKRLtyw-18" value="" style="endArrow=classic;html=1;rounded=0;exitX=0.438;exitY=0.983;exitDx=0;exitDy=0;exitPerimeter=0;" parent="1" source="Y1YdN2ggMdJQCuKRLtyw-15" target="Y1YdN2ggMdJQCuKRLtyw-16" edge="1">
          <mxGeometry width="50" height="50" relative="1" as="geometry">
            <mxPoint x="380" y="390" as="sourcePoint" />
            <mxPoint x="430" y="340" as="targetPoint" />
          </mxGeometry>
        </mxCell>
        <mxCell id="Y1YdN2ggMdJQCuKRLtyw-19" value="" style="endArrow=classic;html=1;rounded=0;entryX=0.5;entryY=0;entryDx=0;entryDy=0;entryPerimeter=0;exitX=1;exitY=1;exitDx=0;exitDy=0;exitPerimeter=0;" parent="1" source="Y1YdN2ggMdJQCuKRLtyw-2" target="h_7bJpUWn6J1QGVlP_Um-7" edge="1">
          <mxGeometry width="50" height="50" relative="1" as="geometry">
            <mxPoint x="353.57142857142867" y="485" as="sourcePoint" />
            <mxPoint x="160" y="146.25" as="targetPoint" />
          </mxGeometry>
        </mxCell>
        <mxCell id="Y1YdN2ggMdJQCuKRLtyw-21" value="Enregistrement des données dans la base" style="strokeWidth=2;html=1;shape=mxgraph.flowchart.start_1;whiteSpace=wrap;" parent="1" vertex="1">
          <mxGeometry x="480" y="545" width="250" height="40" as="geometry" />
        </mxCell>
        <mxCell id="Y1YdN2ggMdJQCuKRLtyw-26" value="" style="endArrow=classic;html=1;rounded=0;entryX=0.696;entryY=0.028;entryDx=0;entryDy=0;entryPerimeter=0;exitX=0.772;exitY=0.899;exitDx=0;exitDy=0;exitPerimeter=0;" parent="1" source="Y1YdN2ggMdJQCuKRLtyw-13" target="Y1YdN2ggMdJQCuKRLtyw-21" edge="1">
          <mxGeometry width="50" height="50" relative="1" as="geometry">
            <mxPoint x="724.7999999999997" y="415.72" as="sourcePoint" />
            <mxPoint x="430" y="340" as="targetPoint" />
          </mxGeometry>
        </mxCell>
        <mxCell id="h_7bJpUWn6J1QGVlP_Um-1" value="Capteur Arduino+DHT11" style="shape=umlActor;verticalLabelPosition=bottom;verticalAlign=top;html=1;outlineConnect=0;" vertex="1" parent="1">
          <mxGeometry x="780" y="300" width="30" height="60" as="geometry" />
        </mxCell>
        <mxCell id="h_7bJpUWn6J1QGVlP_Um-3" value="" style="endArrow=classic;html=1;rounded=0;entryX=1;entryY=0.5;entryDx=0;entryDy=0;entryPerimeter=0;" edge="1" parent="1" source="h_7bJpUWn6J1QGVlP_Um-1" target="Y1YdN2ggMdJQCuKRLtyw-13">
          <mxGeometry width="50" height="50" relative="1" as="geometry">
            <mxPoint x="390" y="400" as="sourcePoint" />
            <mxPoint x="440" y="350" as="targetPoint" />
          </mxGeometry>
        </mxCell>
        <mxCell id="h_7bJpUWn6J1QGVlP_Um-5" value="" style="endArrow=classic;html=1;rounded=0;entryX=0.396;entryY=0.99;entryDx=0;entryDy=0;entryPerimeter=0;" edge="1" parent="1" source="Y1YdN2ggMdJQCuKRLtyw-3" target="h_7bJpUWn6J1QGVlP_Um-7">
          <mxGeometry width="50" height="50" relative="1" as="geometry">
            <mxPoint x="304" y="510" as="sourcePoint" />
            <mxPoint x="110" y="157" as="targetPoint" />
          </mxGeometry>
        </mxCell>
        <mxCell id="h_7bJpUWn6J1QGVlP_Um-6" value="" style="endArrow=classic;html=1;rounded=0;exitX=1;exitY=0.5;exitDx=0;exitDy=0;exitPerimeter=0;entryX=0.19;entryY=0.135;entryDx=0;entryDy=0;entryPerimeter=0;" edge="1" parent="1" source="Y1YdN2ggMdJQCuKRLtyw-16" target="Y1YdN2ggMdJQCuKRLtyw-21">
          <mxGeometry width="50" height="50" relative="1" as="geometry">
            <mxPoint x="329.9984135977338" y="453" as="sourcePoint" />
            <mxPoint x="155.48" y="120" as="targetPoint" />
          </mxGeometry>
        </mxCell>
        <mxCell id="h_7bJpUWn6J1QGVlP_Um-7" value="Authentification" style="strokeWidth=2;html=1;shape=mxgraph.flowchart.start_1;whiteSpace=wrap;" vertex="1" parent="1">
          <mxGeometry x="140" y="340" width="190" height="40" as="geometry" />
        </mxCell>
        <mxCell id="h_7bJpUWn6J1QGVlP_Um-8" value="" style="endArrow=classic;html=1;rounded=0;entryX=0.145;entryY=0.145;entryDx=0;entryDy=0;entryPerimeter=0;exitX=0.657;exitY=0.99;exitDx=0;exitDy=0;exitPerimeter=0;" edge="1" parent="1" source="h_7bJpUWn6J1QGVlP_Um-7" target="Y1YdN2ggMdJQCuKRLtyw-16">
          <mxGeometry width="50" height="50" relative="1" as="geometry">
            <mxPoint x="110" y="544" as="sourcePoint" />
            <mxPoint x="215" y="400" as="targetPoint" />
          </mxGeometry>
        </mxCell>
      </root>
    </mxGraphModel>
  </diagram>
</mxfile>
